<?xml version="1.0" encoding="UTF-8" standalone="no"?>
<!DOCTYPE svg PUBLIC "-//W3C//DTD SVG 1.1//EN"
 "http://www.w3.org/Graphics/SVG/1.1/DTD/svg11.dtd">
<!-- Generated by graphviz version 12.2.1 (20241206.2353)
 -->
<!-- Title: G Pages: 1 -->
<svg width="503pt" height="519pt"
 viewBox="0.00 0.00 502.68 518.80" xmlns="http://www.w3.org/2000/svg" xmlns:xlink="http://www.w3.org/1999/xlink">
<g id="graph0" class="graph" transform="scale(1 1) rotate(0) translate(4 514.8)">
<title>G</title>
<!-- loxygen_environment -->
<g id="node1" class="node">
<title>loxygen_environment</title>
<ellipse fill="#08519c" stroke="#08519c" cx="127.38" cy="-338.1" rx="48.97" ry="21.57"/>
<text text-anchor="middle" x="127.38" y="-339.85" font-family="Helvetica,sans-Serif" font-size="10.00" fill="#ffffff">loxygen.</text>
<text text-anchor="middle" x="127.38" y="-328.6" font-family="Helvetica,sans-Serif" font-size="10.00" fill="#ffffff">environment</text>
</g>
<!-- loxygen_interpreter -->
<g id="node3" class="node">
<title>loxygen_interpreter</title>
<ellipse fill="#4292c6" stroke="#4292c6" cx="116.38" cy="-179.83" rx="42.07" ry="21.57"/>
<text text-anchor="middle" x="116.38" y="-181.58" font-family="Helvetica,sans-Serif" font-size="10.00" fill="#ffffff">loxygen.</text>
<text text-anchor="middle" x="116.38" y="-170.33" font-family="Helvetica,sans-Serif" font-size="10.00" fill="#ffffff">interpreter</text>
</g>
<!-- loxygen_environment&#45;&gt;loxygen_interpreter -->
<g id="edge1" class="edge">
<title>loxygen_environment&#45;&gt;loxygen_interpreter</title>
<path fill="none" stroke="#08519c" d="M125.92,-316.35C124.06,-289.96 120.84,-244.12 118.65,-213.14"/>
<polygon fill="#08519c" stroke="#08519c" points="122.15,-212.91 117.95,-203.18 115.16,-213.4 122.15,-212.91"/>
</g>
<!-- loxygen_runtime -->
<g id="node8" class="node">
<title>loxygen_runtime</title>
<ellipse fill="#2171b5" stroke="#2171b5" cx="177.38" cy="-258.97" rx="37.3" ry="21.57"/>
<text text-anchor="middle" x="177.38" y="-260.72" font-family="Helvetica,sans-Serif" font-size="10.00" fill="#ffffff">loxygen.</text>
<text text-anchor="middle" x="177.38" y="-249.47" font-family="Helvetica,sans-Serif" font-size="10.00" fill="#ffffff">runtime</text>
</g>
<!-- loxygen_environment&#45;&gt;loxygen_runtime -->
<g id="edge2" class="edge">
<title>loxygen_environment&#45;&gt;loxygen_runtime</title>
<path fill="none" stroke="#08519c" d="M140.52,-316.83C146,-308.38 152.47,-298.39 158.45,-289.17"/>
<polygon fill="#08519c" stroke="#08519c" points="161.35,-291.13 163.85,-280.84 155.48,-287.32 161.35,-291.13"/>
</g>
<!-- loxygen_exceptions -->
<g id="node2" class="node">
<title>loxygen_exceptions</title>
<ellipse fill="#08306b" stroke="#08306b" cx="165.38" cy="-417.23" rx="44.72" ry="21.57"/>
<text text-anchor="middle" x="165.38" y="-418.98" font-family="Helvetica,sans-Serif" font-size="10.00" fill="#ffffff">loxygen.</text>
<text text-anchor="middle" x="165.38" y="-407.73" font-family="Helvetica,sans-Serif" font-size="10.00" fill="#ffffff">exceptions</text>
</g>
<!-- loxygen_exceptions&#45;&gt;loxygen_environment -->
<g id="edge3" class="edge">
<title>loxygen_exceptions&#45;&gt;loxygen_environment</title>
<path fill="none" stroke="#08519c" d="M155.4,-395.97C151.46,-387.97 146.84,-378.61 142.51,-369.81"/>
<polygon fill="#08519c" stroke="#08519c" points="145.66,-368.28 138.1,-360.86 139.38,-371.37 145.66,-368.28"/>
</g>
<!-- loxygen_exceptions&#45;&gt;loxygen_interpreter -->
<g id="edge4" class="edge">
<title>loxygen_exceptions&#45;&gt;loxygen_interpreter</title>
<path fill="none" stroke="#08519c" d="M50.38,-257.97C54.32,-237.12 69.15,-218.82 83.75,-205.29"/>
<polygon fill="#08519c" stroke="#08519c" points="85.86,-208.09 91.1,-198.88 81.26,-202.82 85.86,-208.09"/>
</g>
<!-- loxygen_loxygen -->
<g id="node4" class="node">
<title>loxygen_loxygen</title>
<ellipse fill="#9ecae1" stroke="#9ecae1" cx="179.38" cy="-21.57" rx="37.3" ry="21.57"/>
<text text-anchor="middle" x="179.38" y="-23.32" font-family="Helvetica,sans-Serif" font-size="10.00" fill="#ffffff">loxygen.</text>
<text text-anchor="middle" x="179.38" y="-12.07" font-family="Helvetica,sans-Serif" font-size="10.00" fill="#ffffff">loxygen</text>
</g>
<!-- loxygen_exceptions&#45;&gt;loxygen_loxygen -->
<g id="edge5" class="edge">
<title>loxygen_exceptions&#45;&gt;loxygen_loxygen</title>
<path fill="none" stroke="#08519c" d="M129.98,-403.97C109.14,-394.94 84.08,-380.55 69.38,-359.67 43.42,-322.78 42.01,-304.29 50.38,-259.97"/>
<path fill="none" stroke="#08519c" d="M46.38,-99.7C58.23,-62.57 99.82,-42.71 133.37,-32.49"/>
<polygon fill="#08519c" stroke="#08519c" points="134.26,-35.87 142.93,-29.79 132.36,-29.14 134.26,-35.87"/>
<path fill="none" stroke="#08519c" d="M50.38,-257.97C59.66,-189.12 25.26,-167.89 46.38,-101.7"/>
</g>
<!-- loxygen_parser -->
<g id="node6" class="node">
<title>loxygen_parser</title>
<ellipse fill="#2171b5" stroke="#2171b5" cx="317.38" cy="-258.97" rx="47.19" ry="18"/>
<text text-anchor="middle" x="317.38" y="-255.09" font-family="Helvetica,sans-Serif" font-size="10.00" fill="#ffffff">loxygen.parser</text>
</g>
<!-- loxygen_exceptions&#45;&gt;loxygen_parser -->
<g id="edge6" class="edge">
<title>loxygen_exceptions&#45;&gt;loxygen_parser</title>
<path fill="none" stroke="#08519c" d="M206.42,-408.29C251.66,-398.6 320.1,-380.86 335.38,-359.67 350.61,-338.55 342.21,-308.53 332.42,-286.96"/>
<polygon fill="#08519c" stroke="#08519c" points="335.66,-285.62 328.11,-278.19 329.38,-288.71 335.66,-285.62"/>
</g>
<!-- loxygen_exceptions&#45;&gt;loxygen_runtime -->
<g id="edge7" class="edge">
<title>loxygen_exceptions&#45;&gt;loxygen_runtime</title>
<path fill="none" stroke="#08519c" d="M204.38,-337.1C200.01,-321.7 194.25,-304.89 189.17,-290.9"/>
<polygon fill="#08519c" stroke="#08519c" points="192.56,-289.96 185.81,-281.8 185.99,-292.39 192.56,-289.96"/>
<path fill="none" stroke="#08519c" d="M184.1,-397.42C196.83,-382.3 210.36,-360.18 204.38,-339.1"/>
</g>
<!-- loxygen_interpreter&#45;&gt;loxygen_loxygen -->
<g id="edge8" class="edge">
<title>loxygen_interpreter&#45;&gt;loxygen_loxygen</title>
<path fill="none" stroke="#4292c6" d="M86.97,-163.95C64.27,-150.17 38.03,-127.89 46.38,-101.7"/>
</g>
<!-- loxygen_resolver -->
<g id="node7" class="node">
<title>loxygen_resolver</title>
<ellipse fill="#4292c6" stroke="#4292c6" cx="179.38" cy="-100.7" rx="37.3" ry="21.57"/>
<text text-anchor="middle" x="179.38" y="-102.45" font-family="Helvetica,sans-Serif" font-size="10.00" fill="#ffffff">loxygen.</text>
<text text-anchor="middle" x="179.38" y="-91.2" font-family="Helvetica,sans-Serif" font-size="10.00" fill="#ffffff">resolver</text>
</g>
<!-- loxygen_interpreter&#45;&gt;loxygen_resolver -->
<g id="edge9" class="edge">
<title>loxygen_interpreter&#45;&gt;loxygen_resolver</title>
<path fill="none" stroke="#4292c6" d="M132.28,-159.37C139.7,-150.28 148.67,-139.3 156.78,-129.37"/>
<polygon fill="#4292c6" stroke="#4292c6" points="159.35,-131.76 162.97,-121.8 153.93,-127.33 159.35,-131.76"/>
</g>
<!-- loxygen_nodes -->
<g id="node5" class="node">
<title>loxygen_nodes</title>
<ellipse fill="#08519c" stroke="#08519c" cx="279.38" cy="-338.1" rx="46.74" ry="18"/>
<text text-anchor="middle" x="279.38" y="-334.23" font-family="Helvetica,sans-Serif" font-size="10.00" fill="#ffffff">loxygen.nodes</text>
</g>
<!-- loxygen_nodes&#45;&gt;loxygen_interpreter -->
<g id="edge10" class="edge">
<title>loxygen_nodes&#45;&gt;loxygen_interpreter</title>
<path fill="none" stroke="#08519c" d="M272.44,-320C265.66,-304 254.59,-279.66 242.38,-259.97"/>
<path fill="none" stroke="#08519c" d="M242.38,-257.97C224.11,-228.49 189.98,-208.63 161.85,-196.45"/>
<polygon fill="#08519c" stroke="#08519c" points="163.39,-193.3 152.81,-192.74 160.73,-199.78 163.39,-193.3"/>
</g>
<!-- loxygen_nodes&#45;&gt;loxygen_parser -->
<g id="edge11" class="edge">
<title>loxygen_nodes&#45;&gt;loxygen_parser</title>
<path fill="none" stroke="#08519c" d="M287.81,-319.98C292.54,-310.4 298.54,-298.22 303.9,-287.34"/>
<polygon fill="#08519c" stroke="#08519c" points="307.02,-288.91 308.3,-278.4 300.74,-285.82 307.02,-288.91"/>
</g>
<!-- loxygen_nodes&#45;&gt;loxygen_resolver -->
<g id="edge12" class="edge">
<title>loxygen_nodes&#45;&gt;loxygen_resolver</title>
<path fill="none" stroke="#08519c" d="M242.38,-257.97C224.32,-228.83 259.06,-210.78 242.38,-180.83"/>
</g>
<!-- loxygen_nodes&#45;&gt;loxygen_runtime -->
<g id="edge13" class="edge">
<title>loxygen_nodes&#45;&gt;loxygen_runtime</title>
<path fill="none" stroke="#08519c" d="M258.74,-321.49C244.34,-310.6 224.85,-295.87 208.56,-283.55"/>
<polygon fill="#08519c" stroke="#08519c" points="210.7,-280.77 200.61,-277.53 206.48,-286.36 210.7,-280.77"/>
</g>
<!-- loxygen_parser&#45;&gt;loxygen_loxygen -->
<g id="edge14" class="edge">
<title>loxygen_parser&#45;&gt;loxygen_loxygen</title>
<path fill="none" stroke="#2171b5" d="M392.38,-99.7C346.92,-55.76 274.57,-36.59 227.02,-28.41"/>
<polygon fill="#2171b5" stroke="#2171b5" points="227.72,-24.97 217.29,-26.84 226.61,-31.89 227.72,-24.97"/>
<path fill="none" stroke="#2171b5" d="M342.15,-243.3C361.54,-229.95 386.23,-208.17 392.38,-180.83"/>
<path fill="none" stroke="#2171b5" d="M392.38,-178.83C399.9,-145.39 417.03,-125.53 392.38,-101.7"/>
</g>
<!-- loxygen_resolver&#45;&gt;loxygen_loxygen -->
<g id="edge15" class="edge">
<title>loxygen_resolver&#45;&gt;loxygen_loxygen</title>
<path fill="none" stroke="#6baed6" d="M179.38,-79.03C179.38,-71.65 179.38,-63.16 179.38,-55.03"/>
<polygon fill="#6baed6" stroke="#6baed6" points="182.88,-55.08 179.38,-45.08 175.88,-55.08 182.88,-55.08"/>
</g>
<!-- loxygen_runtime&#45;&gt;loxygen_interpreter -->
<g id="edge16" class="edge">
<title>loxygen_runtime&#45;&gt;loxygen_interpreter</title>
<path fill="none" stroke="#2171b5" d="M162.3,-238.9C155.17,-229.88 146.51,-218.94 138.65,-208.99"/>
<polygon fill="#2171b5" stroke="#2171b5" points="141.6,-207.08 132.65,-201.4 136.11,-211.42 141.6,-207.08"/>
</g>
<!-- loxygen_runtime&#45;&gt;loxygen_resolver -->
<g id="edge17" class="edge">
<title>loxygen_runtime&#45;&gt;loxygen_resolver</title>
<path fill="none" stroke="#2171b5" d="M204.14,-243.61C227.57,-229.02 255.93,-205.16 242.38,-180.83"/>
<path fill="none" stroke="#2171b5" d="M242.38,-178.83C232.21,-160.57 217.59,-142.35 205,-128.21"/>
<polygon fill="#2171b5" stroke="#2171b5" points="207.82,-126.11 198.5,-121.09 202.65,-130.83 207.82,-126.11"/>
</g>
<!-- loxygen_scanner -->
<g id="node9" class="node">
<title>loxygen_scanner</title>
<ellipse fill="#6baed6" stroke="#6baed6" cx="457.38" cy="-179.83" rx="37.3" ry="21.57"/>
<text text-anchor="middle" x="457.38" y="-181.58" font-family="Helvetica,sans-Serif" font-size="10.00" fill="#ffffff">loxygen.</text>
<text text-anchor="middle" x="457.38" y="-170.33" font-family="Helvetica,sans-Serif" font-size="10.00" fill="#ffffff">scanner</text>
</g>
<!-- loxygen_scanner&#45;&gt;loxygen_loxygen -->
<g id="edge18" class="edge">
<title>loxygen_scanner&#45;&gt;loxygen_loxygen</title>
<path fill="none" stroke="#6baed6" d="M442.89,-159.5C430.34,-143.3 411.27,-119.96 392.38,-101.7"/>
</g>
<!-- loxygen_token -->
<g id="node10" class="node">
<title>loxygen_token</title>
<ellipse fill="#08306b" stroke="#08306b" cx="165.38" cy="-492.8" rx="45.41" ry="18"/>
<text text-anchor="middle" x="165.38" y="-488.93" font-family="Helvetica,sans-Serif" font-size="10.00" fill="#ffffff">loxygen.token</text>
</g>
<!-- loxygen_token&#45;&gt;loxygen_environment -->
<g id="edge19" class="edge">
<title>loxygen_token&#45;&gt;loxygen_environment</title>
<path fill="none" stroke="#08519c" d="M12.38,-416.23C4.3,-383.48 39.63,-363.46 73.2,-352.06"/>
<polygon fill="#08519c" stroke="#08519c" points="74.06,-355.45 82.54,-349.1 71.95,-348.78 74.06,-355.45"/>
</g>
<!-- loxygen_token&#45;&gt;loxygen_exceptions -->
<g id="edge20" class="edge">
<title>loxygen_token&#45;&gt;loxygen_exceptions</title>
<path fill="none" stroke="#08519c" d="M165.38,-474.37C165.38,-467.2 165.38,-458.67 165.38,-450.45"/>
<polygon fill="#08519c" stroke="#08519c" points="168.88,-450.72 165.38,-440.72 161.88,-450.72 168.88,-450.72"/>
</g>
<!-- loxygen_token&#45;&gt;loxygen_interpreter -->
<g id="edge21" class="edge">
<title>loxygen_token&#45;&gt;loxygen_interpreter</title>
<path fill="none" stroke="#08519c" d="M12.38,-416.23C-6.82,-338.37 -5.15,-306 36.38,-237.4 45.77,-221.88 61.22,-209.48 76.05,-200.28"/>
<polygon fill="#08519c" stroke="#08519c" points="77.45,-203.52 84.33,-195.47 73.93,-197.47 77.45,-203.52"/>
<path fill="none" stroke="#08519c" d="M121.41,-487.6C80.7,-480.89 24.65,-463.46 12.38,-418.23"/>
</g>
<!-- loxygen_token&#45;&gt;loxygen_loxygen -->
<g id="edge22" class="edge">
<title>loxygen_token&#45;&gt;loxygen_loxygen</title>
<path fill="none" stroke="#08519c" d="M392.38,-257.97C386.52,-224.19 384.86,-214.28 392.38,-180.83"/>
</g>
<!-- loxygen_token&#45;&gt;loxygen_nodes -->
<g id="edge23" class="edge">
<title>loxygen_token&#45;&gt;loxygen_nodes</title>
<path fill="none" stroke="#08519c" d="M279.38,-416.23C288.57,-401.97 288.66,-382.93 286.41,-367.34"/>
<polygon fill="#08519c" stroke="#08519c" points="289.89,-366.9 284.62,-357.71 283.01,-368.18 289.89,-366.9"/>
</g>
<!-- loxygen_token&#45;&gt;loxygen_parser -->
<g id="edge24" class="edge">
<title>loxygen_token&#45;&gt;loxygen_parser</title>
<path fill="none" stroke="#08519c" d="M392.38,-337.1C398.8,-312.83 377.8,-292.78 356.41,-279.21"/>
<polygon fill="#08519c" stroke="#08519c" points="358.34,-276.29 347.95,-274.21 354.78,-282.32 358.34,-276.29"/>
<path fill="none" stroke="#08519c" d="M279.38,-416.23C312.3,-365.11 376.83,-397.88 392.38,-339.1"/>
</g>
<!-- loxygen_token&#45;&gt;loxygen_resolver -->
<g id="edge25" class="edge">
<title>loxygen_token&#45;&gt;loxygen_resolver</title>
<path fill="none" stroke="#08519c" d="M392.38,-257.97C390.25,-245.71 383.54,-244.59 373.38,-237.4 321.63,-200.74 273.23,-236.24 242.38,-180.83"/>
<path fill="none" stroke="#08519c" d="M392.38,-337.1C401.15,-303.96 398.25,-293.74 392.38,-259.97"/>
</g>
<!-- loxygen_token&#45;&gt;loxygen_runtime -->
<g id="edge26" class="edge">
<title>loxygen_token&#45;&gt;loxygen_runtime</title>
<path fill="none" stroke="#08519c" d="M279.38,-416.23C305.27,-376.03 217.42,-385.1 204.38,-339.1"/>
<path fill="none" stroke="#08519c" d="M197.73,-479.8C224.16,-468.23 260.19,-448.04 279.38,-418.23"/>
</g>
<!-- loxygen_token&#45;&gt;loxygen_scanner -->
<g id="edge27" class="edge">
<title>loxygen_token&#45;&gt;loxygen_scanner</title>
<path fill="none" stroke="#08519c" d="M392.38,-257.97C388.5,-235.63 405.16,-216.17 422.58,-202.38"/>
<polygon fill="#08519c" stroke="#08519c" points="424.46,-205.34 430.44,-196.59 420.31,-199.7 424.46,-205.34"/>
</g>
</g>
</svg>
